<?xml version="1.0" encoding="UTF-8" standalone="no"?>
<!DOCTYPE svg PUBLIC "-//W3C//DTD SVG 1.1//EN" "http://www.w3.org/Graphics/SVG/1.1/DTD/svg11.dtd">
<svg width="100%" height="100%" viewBox="0 0 128 128" version="1.1" xmlns="http://www.w3.org/2000/svg" xmlns:xlink="http://www.w3.org/1999/xlink" xml:space="preserve" xmlns:serif="http://www.serif.com/" style="fill-rule:evenodd;clip-rule:evenodd;">
    <g transform="matrix(1,0,0,1,-0.5,-0.5)">
        <path d="M128.5,19.7C128.5,9.103 119.897,0.5 109.3,0.5L19.7,0.5C9.103,0.5 0.5,9.103 0.5,19.7L0.5,109.3C0.5,119.897 9.103,128.5 19.7,128.5L109.3,128.5C119.897,128.5 128.5,119.897 128.5,109.3L128.5,19.7Z" style="fill:rgb(0,128,62);"/>
        <g transform="matrix(1,0,0,0.918311,0,1.02111)">
            <path d="M116,28.508C116,19.673 109.413,12.5 101.3,12.5L27.7,12.5C19.587,12.5 13,19.673 13,28.508L13,94.492C13,103.327 19.587,110.5 27.7,110.5L101.3,110.5C109.413,110.5 116,103.327 116,94.492L116,28.508Z" style="fill:white;"/>
        </g>
        <g transform="matrix(1,0,0,1,0,6.74726)">
            <circle cx="64.5" cy="50.75" r="25.25" style="fill:none;stroke:rgb(0,128,62);stroke-width:8.33px;"/>
        </g>
    </g>
</svg>
